PathFileType	4	(X/Y/Z)	C:/Users/beibeiliu/ov580/test_trc/User3\sequence.6_training_dense_left.trc
DataRate	CameraRate	NumFrames	NumMarkers	Units	OrigDataRate	OrigDataStartFrame	OrigNumFrames
120	120	9	19	mm	120	98	195
Frame#	Time	ThumbCMC			ThumbMCP			ThumbIP			ThumbTip			IndexMCP			IndexPIP			IndexTip			MiddleMCP			MiddlePIP			MiddleTip			RingMCP			RingPIP			RingTip			PinkyMCP			PinkyPIP			PinkyTip			BackHand1			BackHand2			BackHand3	
		X0	Y0	Z0	X1	Y1	Z1	X2	Y2	Z2	X3	Y3	Z3	X4	Y4	Z4	X5	Y5	Z5	X6	Y6	Z6	X7	Y7	Z7	X8	Y8	Z8	X9	Y9	Z9	X10	Y10	Z10	X11	Y11	Z11	X12	Y12	Z12	X13	Y13	Z13	X14	Y14	Z14	X15	Y15	Z15	X16	Y16	Z16	X17	Y17	Z17	X18	Y18	Z18	
97	0.808333	-282.936	11.3157	-3.79506	-277.98	26.3495	-37.3841	-284.205	8.74226	-65.45	-288.921	-16.1429	-75.9333	-324.601	-3.41579	-69.4593	-302.25	-9.76826	-91.2836	-280.857	-10.4687	-64.2907	-318.521	-25.0302	-70.6916	-289.195	-31.6379	-78.7073	-280.257	-26.0422	-38.0252	-314.188	-41.615	-59.2017	-284.273	-49.9833	-58.4645	-281.963	-33.8799	-26.68	-308.9	-60.2916	-50.1095	-283.753	-55.3609	-43.9039	-290.98	-41.3585	-15.35	-331.323	-32.593	-4.08942	-318.454	-33.5853	21.9793	-316.514	0.0903613	1.81939	
98	0.816667	-280.629	15.8394	-6.48666	-271.571	19.7569	-40.6516	-273.861	4.37125	-72.5015	-279.126	-19.5181	-74.7882	-317.516	5.84547	-72.0954	-290.541	-1.71264	-87.815	-276.542	-4.78466	-55.3764	-313.901	-17.3907	-72.0916	-281.867	-20.9342	-73.205	-284.641	-20.4543	-30.272	-314.862	-33.5664	-63.7398	-281.823	-39.2549	-63.2182	-281.141	-32.7752	-32.8789	-313.79	-54.3899	-53.3536	-284.101	-45.5436	-52.9219	-286.251	-37.3661	-24.8328	-332.953	-29.3622	-8.85455	-320.751	-32.1643	17.5935	-317.069	2.36186	-0.350788	
99	0.825	-270.225	15.2376	-5.63542	-258.682	24.6471	-39.8035	-263.547	12.054	-66.586	-281.761	-15.1685	-71.8022	-305.655	9.19555	-72.6288	-277.822	-8.10713	-79.2247	-276.071	-11.7176	-46.0536	-311.087	-9.74251	-72.7171	-286.433	-28.812	-71.1133	-283.942	-20.7748	-31.4618	-317.817	-27.223	-60.6706	-288.355	-39.7624	-57.075	-286.089	-24.9869	-26.8208	-319.789	-43.6528	-50.7021	-290.459	-47.457	-47.3154	-282.418	-37.8092	-21.7462	-333.803	-15.9106	-6.67683	-318.233	-16.7765	16.6957	-306.921	11.5941	3.43681	
100	0.833333	-262.9	14.7376	-11.8529	-252.88	16.8247	-45.9997	-260.092	0.6238	-71.8534	-275.956	-22.7493	-71.4384	-299.279	11.2495	-71.085	-273.958	-6.76981	-80.3893	-265.411	-4.59328	-45.5498	-305.091	-6.30849	-71.1357	-278.48	-23.9771	-70.8829	-276.503	-18.3321	-31.6689	-310.342	-24.594	-60.6285	-281.056	-37.6479	-53.5774	-281.392	-23.724	-21.7931	-316.798	-34.1944	-55.2591	-292.892	-45.403	-56.7912	-286.31	-42.979	-28.3026	-325.15	-10.7989	-7.87597	-309.932	-16.5891	21.4681	-299.681	18.4746	-0.0172376	
101	0.841667	-248.425	12.6543	-8.32034	-239.857	13.812	-45.2502	-249.17	-1.28884	-70.5456	-270.185	-19.1578	-68.4136	-285.946	18.5356	-71.5383	-266.219	-4.81871	-79.1372	-258.086	-5.26855	-45.1433	-297.591	-3.14448	-71.0429	-271.98	-22.0462	-69.3794	-272.622	-17.5498	-28.5177	-303.863	-15.2038	-61.9994	-278.64	-33.6275	-56.6774	-275.561	-23.348	-24.3757	-314.294	-27.4613	-53.126	-290.41	-41.5846	-53.8421	-285.195	-32.0958	-24.7503	-317.116	0.377363	-6.09004	-304.477	-10.6105	22.406	-287.967	16.2399	5.26008	
102	0.85	-235.319	4.34888	-0.704397	-227.132	2.5697	-31.814	-234.797	-1.5329	-64.4233	-253.461	-15.6355	-76.4348	-268.845	20.9058	-68.965	-252.127	-4.71152	-83.7985	-247.201	-15.6657	-50.4474	-283.355	5.14735	-67.2839	-267.762	-25.5964	-74.2922	-260.357	-23.3431	-32.1324	-299.04	-10.881	-64.1229	-283.539	-32.8052	-68.7118	-264.995	-31.8992	-40.4821	-309.764	-18.1133	-55.4813	-293.234	-35.3627	-62.5958	-282.777	-45.0475	-30.9898	-302.565	8.06762	-6.604	-294.341	-2.45978	25.0756	-272.535	20.4431	4.32169	
103	0.858333	-218.991	-6.59965	-3.98561	-211.636	-0.875678	-33.6187	-228.882	-2.76882	-66.0595	-249.192	-13.7091	-70.7288	-250.64	11.7553	-75.1565	-244.384	-18.6197	-84.9844	-240.253	-28.0336	-53.193	-266.297	3.26161	-71.4565	-257.927	-31.5505	-72.8509	-254.803	-27.9362	-33.6545	-283.771	-8.87058	-60.9438	-274.148	-39.1927	-54.9792	-265.274	-29.8037	-24.404	-295.439	-14.3766	-54.5592	-287.62	-40.1993	-50.0362	-280.031	-34.4835	-19.9092	-284.744	15.1676	-10.1459	-278.008	5.42959	21.4678	-247.965	16.6786	0.208088	
104	0.866667	-210.475	-9.87679	-6.4659	-203.529	-7.42899	-37.2581	-219.93	-11.1693	-61.8274	-243.8	-21.1769	-67.9094	-240.624	7.836	-74.4288	-238.274	-23.2925	-83.3377	-231.2	-31.1823	-52.5824	-258.786	-4.05321	-69.8328	-251.044	-36.8923	-68.4384	-243.695	-27.4181	-26.4938	-272.851	-15.6411	-61.2557	-262.182	-42.1397	-50.6793	-252.937	-29.0597	-21.0544	-288.658	-22.2418	-54.0896	-273.433	-40.2418	-48.5549	-266.014	-30.7115	-19.2259	-272.071	13.8914	-11.5126	-269.733	3.51833	18.8713	-236.389	11.6555	2.18241	
105	0.875	-201.792	-15.903	-0.420112	-193.128	-20.335	-31.6001	-201.82	-25.9115	-60.6283	-228.137	-33.4615	-71.253	-224.553	1.66101	-71.0966	-220.306	-29.6038	-79.2523	-220.273	-36.5684	-49.3945	-242.943	-8.10151	-68.5441	-237.356	-42.5735	-64.3899	-233.202	-34.2533	-26.1516	-260.654	-19.5114	-58.4903	-253.475	-47.582	-49.2075	-245.844	-35.2606	-18.0202	-279.362	-21.7901	-53.9475	-268.655	-48.0711	-49.274	-259.917	-43.71	-20.9461	-265.034	7.5196	-8.43304	-264.905	0.0245325	21.1249	-229.741	7.92354	3.1566	
